<?xml version="1.0" encoding="utf-8"?>
<!-- Uploaded to: SVG Repo, www.svgrepo.com, Generator: SVG Repo Mixer Tools -->
<svg width="800px" height="800px" viewBox="0 0 1024 1024" class="icon"  version="1.1" xmlns="http://www.w3.org/2000/svg"><path d="M85.333333 213.333333h853.333334v597.333334H85.333333z" fill="#4CAF50" /><path d="M490.666667 213.333333h42.666666v597.333334h-42.666666z" fill="#A5D6A7" /><path d="M512 341.333333c-93.866667 0-170.666667 76.8-170.666667 170.666667s76.8 170.666667 170.666667 170.666667 170.666667-76.8 170.666667-170.666667-76.8-170.666667-170.666667-170.666667z m0 298.666667c-70.4 0-128-57.6-128-128s57.6-128 128-128 128 57.6 128 128-57.6 128-128 128zM938.666667 405.333333v-42.666666h-149.333334v298.666666h149.333334v-42.666666h-106.666667V405.333333zM85.333333 405.333333h106.666667v213.333334H85.333333v42.666666h149.333334V362.666667H85.333333z" fill="#A5D6A7" /></svg>